<svg width="149" height="141" viewBox="0 0 149 141" fill="none" xmlns="http://www.w3.org/2000/svg">
<g filter="url(#filter0_d_150_268)">
<path fill-rule="evenodd" clip-rule="evenodd" d="M17.4817 71.064C23.3253 75.5052 27.4743 71.3562 22.9747 66.4476L22.5072 65.9801C21.5437 65.0682 20.5292 64.2117 19.4686 63.4148C18.3583 62.5967 17.1896 61.8954 16.0208 61.1942C13.1952 59.6059 10.2226 58.2947 7.14442 57.279C6.62523 57.0233 6.02572 56.9843 5.47778 57.1706C4.92983 57.3569 4.47834 57.7532 4.22262 58.2724C3.9669 58.7916 3.9279 59.3911 4.1142 59.939C4.3005 60.487 4.69684 60.9385 5.21603 61.1942C7.72878 62.8888 9.83247 65.051 12.2283 67.0378C13.7672 68.4013 15.3839 69.6674 17.0785 70.8361L17.4817 71.064ZM74.0887 102.906C73.895 102.363 73.4937 101.92 72.9731 101.674C72.4526 101.427 71.8554 101.397 71.313 101.591C70.7705 101.785 70.3273 102.186 70.0807 102.707C69.8341 103.227 69.8044 103.824 69.9982 104.367C70.3217 106.071 69.9557 107.833 68.9805 109.267C68.0054 110.702 66.5009 111.69 64.7974 112.016C63.7668 112.044 62.7446 111.823 61.8171 111.373C60.819 110.989 59.9057 110.414 59.1291 109.679C58.6153 109.137 58.1278 108.572 57.6682 107.984C57.4039 107.569 57.2067 107.116 57.0838 106.64C56.8465 105.528 57.0122 104.368 57.5513 103.367C57.9604 102.958 58.2525 102.549 58.6032 102.14C59.0912 101.463 59.7065 100.888 60.4147 100.446C61.6996 99.6035 63.2026 99.1549 64.7389 99.1549C66.2753 99.1549 67.7782 99.6035 69.0632 100.446C69.4359 100.753 69.9105 100.91 70.3931 100.884C70.8757 100.859 71.3311 100.653 71.6691 100.307C72.0072 99.9621 72.2032 99.5023 72.2184 99.0193C72.2336 98.5363 72.0669 98.0651 71.7513 97.6992C70.3151 96.2275 68.5161 95.1608 66.5359 94.6068C64.5557 94.0527 62.4644 94.031 60.4731 94.5436C60.4601 93.635 60.3224 92.7326 60.0641 91.8614C59.9141 91.4555 59.6489 91.1021 59.3009 90.8449C58.9529 90.5877 58.5373 90.4378 58.1052 90.4136C57.6732 90.3894 57.2434 90.4919 56.8689 90.7087C56.4943 90.9254 56.1912 91.2468 55.9969 91.6335C55.8715 91.8955 55.8001 92.18 55.787 92.4702C55.774 92.7603 55.8195 93.0501 55.9209 93.3223C56.2423 94.3097 56.2423 95.3736 55.9209 96.361C54.1213 97.393 52.6287 98.8856 51.5967 100.685C51.3635 100.709 51.1286 100.709 50.8954 100.685C49.8822 100.728 48.8753 100.507 47.9736 100.042C46.8498 99.7794 45.7943 99.2815 44.8765 98.5815C44.3568 98.062 43.8872 97.4946 43.4741 96.8869C43.166 96.4901 42.9468 96.0317 42.8313 95.5429C42.6428 94.3111 42.853 93.0513 43.4312 91.9475C44.0094 90.8436 44.9253 89.9535 46.0453 89.4071C47.3247 88.5504 48.8298 88.093 50.3695 88.093C51.9093 88.093 53.4144 88.5504 54.6938 89.4071C55.0717 89.7285 55.5581 89.8935 56.0536 89.8683C56.5491 89.843 57.0163 89.6295 57.3595 89.2713C57.7028 88.9131 57.8963 88.4373 57.9004 87.9411C57.9046 87.445 57.7191 86.966 57.3818 86.6022C56.197 85.3455 54.7338 84.3842 53.11 83.7956C51.4862 83.207 49.747 83.0074 48.0321 83.2129C48.2406 81.5815 47.998 79.9243 47.3308 78.4211C47.1198 77.9022 46.7165 77.4847 46.2051 77.2559C45.6937 77.0271 45.1137 77.0045 44.5861 77.193C44.0585 77.3814 43.624 77.7662 43.3733 78.2673C43.1225 78.7683 43.0749 79.3467 43.2403 79.882C43.4418 80.7401 43.4466 81.6326 43.2544 82.4928C43.0621 83.353 42.6777 84.1585 42.13 84.8491C40.9958 85.4568 39.9548 86.2243 39.0388 87.1281C38.7022 87.298 38.3499 87.435 37.9869 87.5371C36.9781 87.5355 35.9815 87.3163 35.0651 86.8943C34.067 86.5106 33.1537 85.9348 32.3771 85.1997C31.8439 84.6764 31.3552 84.1096 30.9162 83.505C30.6141 83.0899 30.4139 82.6094 30.3318 82.1026C30.0911 80.8532 30.2917 79.5589 30.8992 78.4409C31.5066 77.3229 32.4834 76.4505 33.6627 75.9727C34.9477 75.1305 36.4506 74.6819 37.9869 74.6819C39.5233 74.6819 41.0262 75.1305 42.3112 75.9727C42.6887 76.1941 43.1303 76.2806 43.5635 76.2178C43.9967 76.155 44.3956 75.9468 44.6947 75.6273C44.9938 75.3077 45.1754 74.896 45.2095 74.4596C45.2436 74.0233 45.1282 73.5883 44.8824 73.2262C43.0367 71.5807 40.7761 70.4713 38.3454 70.0181C35.9146 69.5649 33.4061 69.7851 31.0915 70.655C28.6534 71.4439 26.5797 73.0822 25.2479 75.2714C23.5675 77.626 22.82 80.5202 23.15 83.394C23.3546 84.6212 23.7695 85.8074 24.3772 86.9002C25.2109 88.1975 26.1848 89.3857 27.299 90.4648C28.9936 91.9257 31.0214 92.9658 33.201 93.4976C34.0932 93.7703 35.0086 93.9261 35.9475 93.9651C35.8302 94.9159 35.8302 95.8776 35.9475 96.8285C36.1576 98.0477 36.5936 99.217 37.2331 100.276C38.0239 101.624 38.9959 102.832 40.1491 103.899C42.9638 106.287 46.5699 107.536 50.2585 107.4C50.29 107.554 50.29 107.713 50.2585 107.867C50.4513 109.106 50.8896 110.298 51.5441 111.373C52.333 112.694 53.3147 113.898 54.46 114.938C56.1313 116.405 58.1357 117.451 60.3036 117.976C62.4411 118.583 64.7051 118.583 66.8426 117.976C68.4081 117.493 69.861 116.701 71.1155 115.647C72.37 114.594 73.4008 113.299 74.1471 111.841C74.7908 110.437 75.1192 108.908 75.1091 107.364C75.099 105.819 74.7507 104.296 74.0887 102.9M67.0764 37.1302C67.8711 37.2861 68.6502 37.5003 69.4138 37.773C73.4459 39.4092 75.6665 35.1434 72.7447 33.2735C71.2878 32.4081 69.7131 31.7586 68.0698 31.3451C64.4202 30.56 60.6588 30.4412 56.9669 30.9945C53.7088 31.2124 50.4364 31.0556 47.214 30.527L35.2404 26.0274C32.4706 24.8665 29.6072 23.9899 26.6504 23.3978C26.4013 23.4194 26.1594 23.4922 25.9399 23.6119C25.7203 23.7315 25.528 23.8953 25.3748 24.0929C25.2217 24.2905 25.1111 24.5176 25.05 24.76C24.989 25.0025 24.9787 25.2549 25.02 25.5015C25.0593 25.9377 25.2504 26.3463 25.5601 26.656C25.8698 26.9657 26.2784 27.1568 26.7146 27.1961C26.7146 27.1961 27.4159 27.5467 28.0587 27.8974C31.6817 29.7673 39.331 34.5591 44.5318 37.1887C46.6647 38.41 49.0313 39.1638 51.4856 39.4092L58.0831 38.0652C61.019 37.3153 64.049 37.0003 67.0764 37.1302ZM143.715 22.644C143.412 22.1415 142.922 21.7795 142.353 21.6371C141.783 21.4948 141.181 21.5836 140.677 21.8843L130.275 27.7279C128.415 28.8007 126.461 29.7005 124.437 30.4159C123.248 30.797 122.004 30.9748 120.756 30.9419C118.8 30.9084 116.848 30.7523 114.912 30.4744C113.195 30.174 111.499 29.7641 109.834 29.2472C107.38 28.4291 105.042 27.3773 102.588 26.676C100.695 26.1058 98.7265 25.8299 96.7502 25.8579C95.1646 25.9281 93.6258 26.2397 92.1337 26.7929C90.0709 27.4766 88.1016 28.4408 86.2901 29.6563C84.8292 30.5328 71.4006 42.968 70.115 44.312C67.8579 46.4389 65.8928 48.8559 64.2714 51.4997C63.1495 53.4865 62.5067 55.707 62.4015 57.9861C62.2713 59.3177 62.4456 60.6615 62.9113 61.9159C63.377 63.1702 64.1219 64.3022 65.0896 65.2263C66.4639 66.313 68.0651 67.0768 69.7745 67.4612C71.4839 67.8455 73.2579 67.8406 74.9652 67.4468C77.9805 66.8391 80.8088 65.5184 83.1989 63.5901C85.5908 61.6889 87.8114 59.6047 89.8606 57.3374C92.8345 58.5883 95.9886 59.3576 99.2045 59.6164C100.724 59.7917 102.243 59.7917 103.762 59.6164C105.262 59.3983 106.723 59.0087 108.145 58.4477C111.367 57.0898 114.285 55.1032 116.729 52.6041C116.943 52.4637 117.126 52.2811 117.266 52.0673C117.407 51.8535 117.502 51.6133 117.545 51.3613C117.589 51.1094 117.581 50.8511 117.521 50.6026C117.461 50.354 117.351 50.1203 117.197 49.916C117.051 49.7087 116.866 49.5322 116.652 49.3965C116.438 49.2608 116.199 49.1686 115.95 49.1252C115.7 49.0818 115.444 49.088 115.197 49.1435C114.95 49.199 114.716 49.3026 114.509 49.4486C111.823 50.5939 108.991 51.3609 106.094 51.7276L101.01 52.6041C99.8414 52.6041 98.7896 53.0131 97.6209 53.0716C95.7946 53.2149 93.96 53.2149 92.1337 53.0716C92.1938 52.8615 92.1938 52.6388 92.1337 52.4288C91.9594 52.2485 91.7505 52.1052 91.5196 52.0073C91.2887 51.9094 91.0405 51.859 90.7897 51.859C90.5389 51.859 90.2907 51.9094 90.0598 52.0073C89.8289 52.1052 89.62 52.2485 89.4457 52.4288C86.6797 55.1753 83.7209 57.688 80.5692 59.967C78.6868 61.2681 76.525 62.1088 74.2582 62.4213C72.69 62.6727 71.083 62.3842 69.7001 61.6032C69.1518 61.3023 68.7145 60.8333 68.4525 60.2653C68.1906 59.6972 68.1179 59.0601 68.2451 58.4477C68.4905 57.1154 69.0048 55.8415 69.7644 54.7078C71.2253 52.6664 72.9005 50.816 74.7899 49.1564C77.6533 46.2988 80.6335 43.3186 83.6664 40.4611C85.5748 38.696 87.6272 37.0932 89.8021 35.6693C90.9319 34.9097 92.1201 34.2474 93.3667 33.6825C95.6669 32.6736 98.2444 32.4879 100.665 33.1566C103.061 33.6825 105.34 34.5591 107.736 35.2603C109.828 35.7862 111.949 36.1563 114.1 36.3706C116.204 36.4874 118.307 36.4874 120.411 36.3706C122.281 36.3121 124.133 35.9615 125.898 35.3187C128.218 34.3486 130.447 33.1753 132.56 31.8126L142.663 25.443C143.167 25.2018 143.558 24.7751 143.754 24.2523C143.95 23.7294 143.936 23.1568 143.715 22.644Z" fill="#E5E3C9"/>
<path fill-rule="evenodd" clip-rule="evenodd" d="M112.458 81.8105C112.101 80.7886 111.674 79.7928 111.179 78.8302C109.524 75.9974 107.564 73.354 105.335 70.9472L99.0823 63.818C98.7626 63.4588 98.3204 63.2319 97.8421 63.1819C97.3639 63.1318 96.8842 63.2623 96.4972 63.5476C96.1102 63.833 95.8437 64.2526 95.75 64.7242C95.6564 65.1959 95.7423 65.6855 95.991 66.097L100.607 74.3949C102.127 76.8259 103.451 79.3581 104.581 81.9916C105.288 83.4642 105.761 85.042 105.984 86.6665C106.169 87.6875 106.134 88.7362 105.882 89.7428C105.63 90.7494 105.167 91.6908 104.523 92.5043C103.705 93.4392 102.653 94.1405 101.484 94.5495C101.4 94.3296 101.302 94.1149 101.192 93.9067C99.9595 92.0738 98.5922 90.3354 97.1013 88.7059L88.6865 79.1808C88.5253 78.943 88.3189 78.7391 88.079 78.581C87.8391 78.4229 87.5703 78.3136 87.2882 78.2593C86.7183 78.1497 86.1283 78.271 85.6478 78.5965C85.1674 78.9219 84.8359 79.4249 84.7263 79.9948C84.6167 80.5647 84.738 81.1547 85.0635 81.6352L91.6083 92.7964C92.7225 94.3547 93.7548 95.9715 94.7054 97.6466C95.2118 98.5076 95.6014 99.4231 95.8741 100.393C96.1989 101.062 96.2947 101.819 96.1469 102.547C95.999 103.276 95.6157 103.936 95.056 104.425C94.2196 105.114 93.208 105.558 92.1342 105.705V105.179C91.5147 103.852 90.7504 102.598 89.8552 101.439C88.4527 99.7445 87.1087 98.1083 85.5894 96.5305C84.07 94.9527 82.6734 93.4334 81.0957 91.9783C80.7754 91.5869 80.3142 91.3369 79.8114 91.2822C79.3086 91.2275 78.8045 91.3726 78.4076 91.6861C78.0122 92.0167 77.7607 92.4879 77.7062 93.0003C77.6517 93.5128 77.7984 94.0263 78.1154 94.4326C79.0504 95.8351 79.8685 97.1791 80.6866 98.64C81.5047 100.101 82.9656 102.906 84.0175 105.126L85.6537 109.094L84.8356 110.497C84.4412 111.128 83.9213 111.672 83.3081 112.094C82.6949 112.516 82.0015 112.808 81.271 112.951C79.8594 113.327 78.3583 113.16 77.0636 112.484C76.822 112.334 76.5531 112.233 76.2724 112.187C75.9918 112.141 75.7048 112.151 75.428 112.216C75.1511 112.281 74.8899 112.4 74.6591 112.566C74.4284 112.733 74.2327 112.943 74.0833 113.185C73.7775 113.682 73.6796 114.279 73.8108 114.848C73.942 115.417 74.2918 115.911 74.7846 116.223C76.6629 117.852 79.0779 118.726 81.5631 118.678C83.8029 118.738 86.0127 118.153 87.9294 116.993C89.846 115.832 91.3888 114.145 92.3738 112.133C92.5491 111.556 92.666 110.972 92.7244 110.38C94.7335 110.519 96.7444 110.136 98.5622 109.27C100.282 108.307 101.661 106.834 102.509 105.055C103.356 103.276 103.631 101.278 103.295 99.3354C105.456 98.9303 107.472 97.9628 109.139 96.5305C110.469 95.3177 111.541 93.8501 112.293 92.2149C113.045 90.5797 113.461 88.8102 113.516 87.0113C113.38 85.2411 113.027 83.4943 112.464 81.8105M144.183 74.6287C144.115 74.352 143.993 74.0915 143.823 73.8623C143.654 73.6331 143.441 73.4396 143.196 73.2929C142.952 73.1463 142.681 73.0494 142.399 73.0079C142.117 72.9664 141.83 72.981 141.554 73.0509C137.989 73.46 134.541 73.5768 131.093 74.1612C128.75 74.5445 126.445 75.1311 124.204 75.9143C121.628 76.8891 119.177 78.164 116.899 79.7126C112.113 81.6994 114.971 85.5562 119.471 84.2706L124.905 83.1603L128.996 82.1669L133.028 80.8813C136.242 79.771 139.397 78.5439 142.605 77.2583C142.882 77.19 143.143 77.0676 143.372 76.8983C143.601 76.729 143.795 76.516 143.941 76.2716C144.088 76.0272 144.185 75.7563 144.226 75.4743C144.268 75.1923 144.253 74.905 144.183 74.6287Z" fill="#E5E3C9"/>
</g>
<defs>
<filter id="filter0_d_150_268" x="-0.00195312" y="21.5708" width="148.252" height="105.111" filterUnits="userSpaceOnUse" color-interpolation-filters="sRGB">
<feFlood flood-opacity="0" result="BackgroundImageFix"/>
<feColorMatrix in="SourceAlpha" type="matrix" values="0 0 0 0 0 0 0 0 0 0 0 0 0 0 0 0 0 0 127 0" result="hardAlpha"/>
<feOffset dy="4"/>
<feGaussianBlur stdDeviation="2"/>
<feComposite in2="hardAlpha" operator="out"/>
<feColorMatrix type="matrix" values="0 0 0 0 0 0 0 0 0 0 0 0 0 0 0 0 0 0 1 0"/>
<feBlend mode="normal" in2="BackgroundImageFix" result="effect1_dropShadow_150_268"/>
<feBlend mode="normal" in="SourceGraphic" in2="effect1_dropShadow_150_268" result="shape"/>
</filter>
</defs>
</svg>
