<svg width="149" height="106" viewBox="0 0 149 106" fill="none" xmlns="http://www.w3.org/2000/svg">
<g filter="url(#filter0_d_231_199)">
<path fill-rule="evenodd" clip-rule="evenodd" d="M17.4817 50.064C23.3253 54.5052 27.4743 50.3562 22.9747 45.4476L22.5072 44.9801C21.5437 44.0682 20.5292 43.2117 19.4686 42.4148C18.3583 41.5967 17.1896 40.8954 16.0208 40.1942C13.1952 38.6059 10.2226 37.2947 7.14442 36.279C6.62523 36.0233 6.02572 35.9843 5.47778 36.1706C4.92983 36.3569 4.47834 36.7532 4.22262 37.2724C3.9669 37.7916 3.9279 38.3911 4.1142 38.939C4.3005 39.487 4.69684 39.9385 5.21603 40.1942C7.72878 41.8888 9.83247 44.051 12.2283 46.0378C13.7672 47.4013 15.3839 48.6674 17.0785 49.8361L17.4817 50.064ZM74.0887 81.9058C73.895 81.3634 73.4937 80.9201 72.9731 80.6735C72.4526 80.4269 71.8554 80.3973 71.313 80.591C70.7705 80.7847 70.3273 81.186 70.0807 81.7065C69.8341 82.2271 69.8044 82.8243 69.9982 83.3667C70.3217 85.0706 69.9557 86.8332 68.9805 88.2675C68.0054 89.7017 66.5009 90.6903 64.7974 91.016C63.7668 91.0438 62.7446 90.8233 61.8171 90.3732C60.819 89.9894 59.9057 89.4137 59.1291 88.6785C58.6153 88.1373 58.1278 87.5718 57.6682 86.9839C57.4039 86.5694 57.2067 86.1158 57.0838 85.6399C56.8465 84.5281 57.0122 83.3683 57.5513 82.3674C57.9604 81.9584 58.2525 81.5493 58.6032 81.1403C59.0912 80.4631 59.7065 79.8875 60.4147 79.4456C61.6996 78.6035 63.2026 78.1549 64.7389 78.1549C66.2753 78.1549 67.7782 78.6035 69.0632 79.4456C69.4359 79.7533 69.9105 79.9099 70.3931 79.8843C70.8757 79.8587 71.3311 79.6528 71.6691 79.3074C72.0072 78.9621 72.2032 78.5023 72.2184 78.0193C72.2336 77.5363 72.0669 77.0651 71.7513 76.6992C70.3151 75.2275 68.5161 74.1608 66.5359 73.6068C64.5557 73.0527 62.4644 73.031 60.4731 73.5436C60.4601 72.635 60.3224 71.7326 60.0641 70.8614C59.9141 70.4555 59.6489 70.1021 59.3009 69.8449C58.9529 69.5877 58.5373 69.4378 58.1052 69.4136C57.6732 69.3894 57.2434 69.4919 56.8689 69.7087C56.4943 69.9254 56.1912 70.2468 55.9969 70.6335C55.8715 70.8955 55.8001 71.18 55.787 71.4702C55.774 71.7603 55.8195 72.0501 55.9209 72.3223C56.2423 73.3097 56.2423 74.3736 55.9209 75.361C54.1213 76.393 52.6287 77.8856 51.5967 79.6852C51.3635 79.7087 51.1286 79.7087 50.8954 79.6852C49.8822 79.7281 48.8753 79.5066 47.9736 79.0424C46.8498 78.7794 45.7943 78.2815 44.8765 77.5815C44.3568 77.062 43.8872 76.4946 43.4741 75.8869C43.166 75.4901 42.9468 75.0317 42.8313 74.5429C42.6428 73.3111 42.853 72.0513 43.4312 70.9475C44.0094 69.8436 44.9253 68.9535 46.0453 68.4071C47.3247 67.5504 48.8298 67.093 50.3695 67.093C51.9093 67.093 53.4144 67.5504 54.6938 68.4071C55.0717 68.7285 55.5581 68.8935 56.0536 68.8683C56.5491 68.843 57.0163 68.6295 57.3595 68.2713C57.7028 67.9131 57.8963 67.4373 57.9004 66.9411C57.9046 66.445 57.7191 65.966 57.3818 65.6022C56.197 64.3455 54.7338 63.3842 53.11 62.7956C51.4862 62.207 49.747 62.0074 48.0321 62.2129C48.2406 60.5815 47.998 58.9243 47.3308 57.4211C47.1198 56.9022 46.7165 56.4847 46.2051 56.2559C45.6937 56.0271 45.1137 56.0045 44.5861 56.193C44.0585 56.3814 43.624 56.7662 43.3733 57.2673C43.1225 57.7683 43.0749 58.3467 43.2403 58.882C43.4418 59.7401 43.4466 60.6326 43.2544 61.4928C43.0621 62.353 42.6777 63.1585 42.13 63.8491C40.9958 64.4568 39.9548 65.2243 39.0388 66.1281C38.7022 66.298 38.3499 66.435 37.9869 66.5371C36.9781 66.5355 35.9815 66.3163 35.0651 65.8943C34.067 65.5106 33.1537 64.9348 32.3771 64.1997C31.8439 63.6764 31.3552 63.1096 30.9162 62.505C30.6141 62.0899 30.4139 61.6094 30.3318 61.1026C30.0911 59.8532 30.2917 58.5589 30.8992 57.4409C31.5066 56.3229 32.4834 55.4505 33.6627 54.9727C34.9477 54.1305 36.4506 53.6819 37.9869 53.6819C39.5233 53.6819 41.0262 54.1305 42.3112 54.9727C42.6887 55.1941 43.1303 55.2806 43.5635 55.2178C43.9967 55.155 44.3956 54.9468 44.6947 54.6273C44.9938 54.3077 45.1754 53.896 45.2095 53.4596C45.2436 53.0233 45.1282 52.5883 44.8824 52.2262C43.0367 50.5807 40.7761 49.4713 38.3454 49.0181C35.9146 48.5649 33.4061 48.7851 31.0915 49.655C28.6534 50.4439 26.5797 52.0822 25.2479 54.2714C23.5675 56.626 22.82 59.5202 23.15 62.394C23.3546 63.6212 23.7695 64.8074 24.3772 65.9002C25.2109 67.1975 26.1848 68.3857 27.299 69.4648C28.9936 70.9257 31.0214 71.9658 33.201 72.4976C34.0932 72.7703 35.0086 72.9261 35.9475 72.9651C35.8302 73.9159 35.8302 74.8776 35.9475 75.8285C36.1576 77.0477 36.5936 78.217 37.2331 79.2762C38.0239 80.6241 38.9959 81.8318 40.1491 82.8992C42.9638 85.2871 46.5699 86.5356 50.2585 86.3995C50.29 86.5538 50.29 86.7128 50.2585 86.867C50.4513 88.1059 50.8896 89.298 51.5441 90.3732C52.333 91.6938 53.3147 92.8976 54.46 93.9378C56.1313 95.4045 58.1357 96.4505 60.3036 96.9764C62.4411 97.5828 64.7051 97.5828 66.8426 96.9764C68.4081 96.4931 69.861 95.7012 71.1155 94.6474C72.37 93.5936 73.4008 92.2992 74.1471 90.8407C74.7908 89.4365 75.1192 87.9084 75.1091 86.3638C75.099 84.8192 74.7507 83.2955 74.0887 81.8999M67.0764 16.1302C67.8711 16.2861 68.6502 16.5003 69.4138 16.773C73.4459 18.4092 75.6665 14.1434 72.7447 12.2735C71.2878 11.4081 69.7131 10.7586 68.0698 10.3451C64.4202 9.56003 60.6588 9.44125 56.9669 9.99446C53.7088 10.2124 50.4364 10.0556 47.214 9.52698L35.2404 5.0274C32.4706 3.86648 29.6072 2.98994 26.6504 2.39779C26.4013 2.41936 26.1594 2.49225 25.9399 2.61187C25.7203 2.73149 25.528 2.89526 25.3748 3.09286C25.2217 3.29046 25.1111 3.51762 25.05 3.76005C24.989 4.00247 24.9787 4.25491 25.02 4.50148C25.0593 4.93769 25.2504 5.34627 25.5601 5.65597C25.8698 5.96567 26.2784 6.15683 26.7146 6.19612C26.7146 6.19612 27.4159 6.54674 28.0587 6.89736C31.6817 8.76731 39.331 13.5591 44.5318 16.1887C46.6647 17.41 49.0313 18.1638 51.4856 18.4092L58.0831 17.0652C61.019 16.3153 64.049 16.0003 67.0764 16.1302ZM143.715 1.64396C143.412 1.14146 142.922 0.77946 142.353 0.637108C141.783 0.494756 141.181 0.583626 140.677 0.884292L130.275 6.72789C128.415 7.80074 126.461 8.70054 124.437 9.41595C123.248 9.79699 122.004 9.97479 120.756 9.94187C118.8 9.90845 116.848 9.75231 114.912 9.47439C113.195 9.17395 111.499 8.76407 109.834 8.24723C107.38 7.42913 105.042 6.37728 102.588 5.67604C100.695 5.10578 98.7265 4.82985 96.7502 4.85794C95.1646 4.92806 93.6258 5.23972 92.1337 5.79292C90.0709 6.47662 88.1016 7.44081 86.2901 8.65628C84.8292 9.53282 71.4006 21.968 70.115 23.312C67.8579 25.4389 65.8928 27.8559 64.2714 30.4997C63.1495 32.4865 62.5067 34.707 62.4015 36.9861C62.2713 38.3177 62.4456 39.6615 62.9113 40.9159C63.377 42.1702 64.1219 43.3022 65.0896 44.2263C66.4639 45.313 68.0651 46.0768 69.7745 46.4612C71.4839 46.8455 73.2579 46.8406 74.9652 46.4468C77.9805 45.8391 80.8088 44.5184 83.1989 42.5901C85.5908 40.6889 87.8114 38.6047 89.8606 36.3374C92.8345 37.5883 95.9886 38.3576 99.2045 38.6164C100.724 38.7917 102.243 38.7917 103.762 38.6164C105.262 38.3983 106.723 38.0087 108.145 37.4477C111.367 36.0898 114.285 34.1032 116.729 31.6041C116.943 31.4637 117.126 31.2811 117.266 31.0673C117.407 30.8535 117.502 30.6133 117.545 30.3613C117.589 30.1094 117.581 29.8511 117.521 29.6026C117.461 29.354 117.351 29.1203 117.197 28.916C117.051 28.7087 116.866 28.5322 116.652 28.3965C116.438 28.2608 116.199 28.1686 115.95 28.1252C115.7 28.0818 115.444 28.088 115.197 28.1435C114.95 28.199 114.716 28.3026 114.509 28.4486C111.823 29.5939 108.991 30.3609 106.094 30.7276L101.01 31.6041C99.8414 31.6041 98.7896 32.0131 97.6209 32.0716C95.7946 32.2149 93.96 32.2149 92.1337 32.0716C92.1938 31.8615 92.1938 31.6388 92.1337 31.4288C91.9594 31.2485 91.7505 31.1052 91.5196 31.0073C91.2887 30.9094 91.0405 30.859 90.7897 30.859C90.5389 30.859 90.2907 30.9094 90.0598 31.0073C89.8289 31.1052 89.62 31.2485 89.4457 31.4288C86.6797 34.1753 83.7209 36.688 80.5692 38.967C78.6868 40.2681 76.525 41.1088 74.2582 41.4213C72.69 41.6727 71.083 41.3842 69.7001 40.6032C69.1518 40.3023 68.7145 39.8333 68.4525 39.2653C68.1906 38.6972 68.1179 38.0601 68.2451 37.4477C68.4905 36.1154 69.0048 34.8415 69.7644 33.7078C71.2253 31.6664 72.9005 29.816 74.7899 28.1564C77.6533 25.2988 80.6335 22.3186 83.6664 19.4611C85.5748 17.696 87.6272 16.0932 89.8021 14.6693C90.9319 13.9097 92.1201 13.2474 93.3667 12.6825C95.6669 11.6736 98.2444 11.4879 100.665 12.1566C103.061 12.6825 105.34 13.5591 107.736 14.2603C109.828 14.7862 111.949 15.1563 114.1 15.3706C116.204 15.4874 118.307 15.4874 120.411 15.3706C122.281 15.3121 124.133 14.9615 125.898 14.3187C128.218 13.3486 130.447 12.1753 132.56 10.8126L142.663 4.44305C143.167 4.20181 143.558 3.7751 143.754 3.25226C143.95 2.72942 143.936 2.15684 143.715 1.64396Z" fill="#FAF9EE"/>
<path fill-rule="evenodd" clip-rule="evenodd" d="M112.458 60.8105C112.101 59.7886 111.674 58.7928 111.179 57.8302C109.524 54.9974 107.564 52.354 105.335 49.9472L99.0823 42.818C98.7626 42.4588 98.3204 42.2319 97.8421 42.1819C97.3639 42.1318 96.8842 42.2623 96.4972 42.5476C96.1102 42.833 95.8437 43.2526 95.75 43.7242C95.6564 44.1959 95.7423 44.6855 95.991 45.097L100.607 53.3949C102.127 55.8259 103.451 58.3581 104.581 60.9916C105.288 62.4642 105.761 64.042 105.984 65.6665C106.169 66.6875 106.134 67.7362 105.882 68.7428C105.63 69.7494 105.167 70.6908 104.523 71.5043C103.705 72.4392 102.653 73.1405 101.484 73.5495C101.4 73.3296 101.302 73.1149 101.192 72.9067C99.9595 71.0738 98.5922 69.3354 97.1013 67.7059L88.6865 58.1808C88.5253 57.943 88.3189 57.7391 88.079 57.581C87.8391 57.4229 87.5703 57.3136 87.2882 57.2593C86.7183 57.1497 86.1283 57.271 85.6478 57.5965C85.1674 57.9219 84.8359 58.4249 84.7263 58.9948C84.6167 59.5647 84.738 60.1547 85.0635 60.6352L91.6083 71.7964C92.7225 73.3547 93.7548 74.9715 94.7054 76.6466C95.2118 77.5076 95.6014 78.4231 95.8741 79.3931C96.1989 80.0619 96.2947 80.8189 96.1469 81.5475C95.999 82.2761 95.6157 82.9359 95.056 83.4252C94.2196 84.1145 93.208 84.5576 92.1342 84.7049V84.179C91.5147 82.8522 90.7504 81.598 89.8552 80.4391C88.4527 78.7445 87.1087 77.1083 85.5894 75.5305C84.07 73.9527 82.6734 72.4334 81.0957 70.9783C80.7754 70.5869 80.3142 70.3369 79.8114 70.2822C79.3086 70.2275 78.8045 70.3726 78.4076 70.6861C78.0122 71.0167 77.7607 71.4879 77.7062 72.0003C77.6517 72.5128 77.7984 73.0263 78.1154 73.4326C79.0504 74.8351 79.8685 76.1791 80.6866 77.64C81.5047 79.1009 82.9656 81.9059 84.0175 84.1264L85.6537 88.0942L84.8356 89.4967C84.4412 90.1281 83.9213 90.6718 83.3081 91.094C82.6949 91.5162 82.0015 91.8079 81.271 91.951C79.8594 92.3265 78.3583 92.1597 77.0636 91.4835C76.822 91.3335 76.5531 91.2327 76.2724 91.1867C75.9918 91.1408 75.7048 91.1507 75.428 91.2158C75.1511 91.2809 74.8899 91.4 74.6591 91.5663C74.4284 91.7326 74.2327 91.9427 74.0833 92.1847C73.7775 92.6818 73.6796 93.2792 73.8108 93.8479C73.942 94.4166 74.2918 94.9107 74.7846 95.2234C76.6629 96.8516 79.0779 97.726 81.5631 97.6777C83.8029 97.7378 86.0127 97.1529 87.9294 95.9925C89.846 94.8322 91.3888 93.1453 92.3738 91.1329C92.5491 90.5563 92.666 89.972 92.7244 89.3798C94.7335 89.5189 96.7444 89.1364 98.5622 88.2695C100.282 87.3069 101.661 85.8344 102.509 84.0552C103.356 82.2759 103.631 80.2775 103.295 78.3354C105.456 77.9303 107.472 76.9628 109.139 75.5305C110.469 74.3177 111.541 72.8501 112.293 71.2149C113.045 69.5797 113.461 67.8102 113.516 66.0113C113.38 64.2411 113.027 62.4943 112.464 60.8105M144.183 53.6287C144.115 53.352 143.993 53.0915 143.823 52.8623C143.654 52.6331 143.441 52.4396 143.196 52.2929C142.952 52.1463 142.681 52.0494 142.399 52.0079C142.117 51.9664 141.83 51.981 141.554 52.0509C137.989 52.46 134.541 52.5768 131.093 53.1612C128.75 53.5445 126.445 54.1311 124.204 54.9143C121.628 55.8891 119.177 57.164 116.899 58.7126C112.113 60.6994 114.971 64.5562 119.471 63.2706L124.905 62.1603L128.996 61.1669L133.028 59.8813C136.242 58.771 139.397 57.5439 142.605 56.2583C142.882 56.19 143.143 56.0676 143.372 55.8983C143.601 55.729 143.795 55.516 143.941 55.2716C144.088 55.0272 144.185 54.7563 144.226 54.4743C144.268 54.1923 144.253 53.905 144.183 53.6287Z" fill="#FAF9EE"/>
</g>
<defs>
<filter id="filter0_d_231_199" x="-0.00195312" y="0.570801" width="148.252" height="105.111" filterUnits="userSpaceOnUse" color-interpolation-filters="sRGB">
<feFlood flood-opacity="0" result="BackgroundImageFix"/>
<feColorMatrix in="SourceAlpha" type="matrix" values="0 0 0 0 0 0 0 0 0 0 0 0 0 0 0 0 0 0 127 0" result="hardAlpha"/>
<feOffset dy="4"/>
<feGaussianBlur stdDeviation="2"/>
<feComposite in2="hardAlpha" operator="out"/>
<feColorMatrix type="matrix" values="0 0 0 0 0 0 0 0 0 0 0 0 0 0 0 0 0 0 1 0"/>
<feBlend mode="normal" in2="BackgroundImageFix" result="effect1_dropShadow_231_199"/>
<feBlend mode="normal" in="SourceGraphic" in2="effect1_dropShadow_231_199" result="shape"/>
</filter>
</defs>
</svg>
